HIERARCHY
ROOT joint_Root
{
	OFFSET 0.0 0.0 0.0
	CHANNELS 6 Xposition Yposition Zposition Zrotation Xrotation Yrotation 
	JOINT Hips
	{
		OFFSET 4.5925 91.4895 -427.239
		CHANNELS 6 Xposition Yposition Zposition Zrotation Xrotation Yrotation 
		JOINT Spine
		{
			OFFSET 15.7357 0.0 0.0
			CHANNELS 6 Xposition Yposition Zposition Zrotation Xrotation Yrotation 
			JOINT Chest
			{
				OFFSET 8.98455 -0.406207 0.0
				CHANNELS 6 Xposition Yposition Zposition Zrotation Xrotation Yrotation 
				JOINT Neck
				{
					OFFSET 16.3773 0.0 0.0
					CHANNELS 6 Xposition Yposition Zposition Zrotation Xrotation Yrotation 
					JOINT Head
					{
						OFFSET 6.45672 0.0 0.0
						CHANNELS 6 Xposition Yposition Zposition Zrotation Xrotation Yrotation 
						End Site
						{
							OFFSET 0.0 0.0 0.0
						}
					}
				}
				JOINT Shoulder_L
				{
					OFFSET 12.9942 -0.242716 4.98039
					CHANNELS 6 Xposition Yposition Zposition Zrotation Xrotation Yrotation 
					JOINT UpperArm_L
					{
						OFFSET 5.34809 0.0 0.0
						CHANNELS 6 Xposition Yposition Zposition Zrotation Xrotation Yrotation 
						JOINT LowerArm_L
						{
							OFFSET 24.3286 1.87007e-05 0.0
							CHANNELS 6 Xposition Yposition Zposition Zrotation Xrotation Yrotation 
							JOINT Hand_L
							{
								OFFSET 22.2916 0.0 0.0
								CHANNELS 6 Xposition Yposition Zposition Zrotation Xrotation Yrotation 
								End Site
								{
									OFFSET 0.0 0.0 0.0
								}
							}
						}
					}
				}
				JOINT Shoulder_R
				{
					OFFSET 12.9945 -0.242716 -4.98039
					CHANNELS 6 Xposition Yposition Zposition Zrotation Xrotation Yrotation 
					JOINT UpperArm_R
					{
						OFFSET -5.34813 0.0 0.0
						CHANNELS 6 Xposition Yposition Zposition Zrotation Xrotation Yrotation 
						JOINT LowerArm_R
						{
							OFFSET -24.3289 0.000322201 0.0
							CHANNELS 6 Xposition Yposition Zposition Zrotation Xrotation Yrotation 
							JOINT Hand_R
							{
								OFFSET -22.2915 -0.000108084 0.0
								CHANNELS 6 Xposition Yposition Zposition Zrotation Xrotation Yrotation 
								End Site
								{
									OFFSET 0.0 0.0 0.0
								}
							}
						}
					}
				}
			}
		}
		JOINT UpperLeg_L
		{
			OFFSET -2.19248 -6.46944 0.0
			CHANNELS 6 Xposition Yposition Zposition Zrotation Xrotation Yrotation 
			JOINT LowerLeg_L
			{
				OFFSET 39.0811 0.0 -1.23785e-05
				CHANNELS 6 Xposition Yposition Zposition Zrotation Xrotation Yrotation 
				JOINT Foot_L
				{
					OFFSET 40.9854 0.0 -1.26872e-05
					CHANNELS 6 Xposition Yposition Zposition Zrotation Xrotation Yrotation 
					JOINT Toes_L
					{
						OFFSET 11.7543 0.0 0.0
						CHANNELS 6 Xposition Yposition Zposition Zrotation Xrotation Yrotation 
						End Site
						{
							OFFSET 0.0 0.0 0.0
						}
					}
				}
			}
		}
		JOINT UpperLeg_R
		{
			OFFSET -2.19251 6.46944 0.0
			CHANNELS 6 Xposition Yposition Zposition Zrotation Xrotation Yrotation 
			JOINT LowerLeg_R
			{
				OFFSET -39.0811 -0.00228153 -0.0401928
				CHANNELS 6 Xposition Yposition Zposition Zrotation Xrotation Yrotation 
				JOINT Foot_R
				{
					OFFSET -40.9854 0.0 0.0
					CHANNELS 6 Xposition Yposition Zposition Zrotation Xrotation Yrotation 
					JOINT Toes_R
					{
						OFFSET -11.7543 0.0 0.0
						CHANNELS 6 Xposition Yposition Zposition Zrotation Xrotation Yrotation 
						End Site
						{
							OFFSET 0.0 0.0 0.0
						}
					}
				}
			}
		}
	}
}
MOTION
Frames:	6
Frame Time:	0.0333333
0.000000 0.000000 0.000000 0.000000 0.000000 -0.000000 1.184230 90.872400 -1.092970 90.680300 -1.395130 9.608710 15.735700 0.000005 -0.000001 83.959600 82.962000 -84.029900 8.984550 -0.406207 -0.000000 6.232530 -1.476080 -0.060203 16.377300 -0.000001 -0.000001 1.510300 -2.488740 2.746580 6.456720 -0.000001 -0.000000 -12.319800 -2.837260 7.241220 12.994200 -0.242716 4.980390 -91.735900 6.215340 -74.361600 5.348090 -0.000007 -0.000001 -62.040200 35.656800 -16.016100 24.328600 0.000019 0.000005 6.854690 20.098200 -19.281200 22.291600 -0.000001 0.000005 11.370600 5.211090 2.439960 12.994500 -0.242716 -4.980390 88.210300 12.293200 -81.651300 -5.348130 -0.000001 -0.000004 -62.174300 28.049800 -8.942360 -24.328900 0.000322 -0.000009 1.164500 3.256090 -19.707500 -22.291500 -0.000108 -0.000004 14.952500 5.370710 -2.008570 -2.192480 -6.469440 -0.000000 -178.273000 -10.630200 -1.380160 39.081100 -0.000007 -0.000012 -0.119663 0.204115 30.381300 40.985400 -0.000006 -0.000013 1.404720 3.030100 -69.612600 11.754300 -0.000000 0.000003 -0.000133 -0.001311 -16.627600 -2.192510 6.469440 -0.000001 172.535000 19.617700 179.463000 -39.081100 -0.002282 -0.040193 -0.203910 0.347652 30.796300 -40.985400 0.000008 0.000006 1.700970 11.252600 -69.902400 -11.754300 -0.000006 -0.000006 -0.004020 -0.051652 -18.674200
0.000000 0.000000 0.000000 0.000000 0.000000 -0.000000 0.938993 90.886300 -0.992624 90.433600 -1.303920 9.925650 15.735700 0.000005 -0.000001 84.220900 82.846500 -84.207400 8.984550 -0.406207 -0.000000 6.469910 -1.436420 0.108186 16.377300 -0.000001 -0.000001 1.838020 -2.500680 2.780640 6.456720 -0.000001 -0.000000 -12.296100 -2.819830 7.325910 12.994200 -0.242716 4.980390 -91.741100 6.314640 -74.550800 5.348090 -0.000007 -0.000001 -61.714800 39.007700 -17.933500 24.328600 0.000019 0.000005 7.422630 19.549900 -21.272600 22.291600 -0.000001 0.000005 11.362700 5.220370 2.203020 12.994500 -0.242716 -4.980390 88.267500 12.268300 -81.898400 -5.348130 -0.000001 -0.000004 -62.323700 30.258900 -10.658300 -24.328900 0.000322 -0.000009 1.211710 3.089890 -21.440100 -22.291500 -0.000108 -0.000004 15.061900 5.380630 -2.317990 -2.192480 -6.469440 -0.000000 -177.739000 -10.650100 -0.975695 39.081100 -0.000007 -0.000012 -0.124623 0.212386 30.403500 40.985400 -0.000006 -0.000013 1.269060 3.257880 -69.675900 11.754300 -0.000000 0.000003 -0.000118 -0.001188 -16.623000 -2.192510 6.469440 -0.000001 172.650000 20.206600 -179.897000 -39.081100 -0.002282 -0.040193 -0.198329 0.341793 30.537300 -40.985400 0.000008 0.000006 1.972840 11.695800 -69.941200 -11.754300 -0.000006 -0.000006 -0.003913 -0.050532 -18.628600
0.000000 0.000000 0.000000 0.000000 0.000000 -0.000000 0.705802 90.900400 -0.909348 90.221900 -1.176440 10.173200 15.735700 0.000005 -0.000001 84.412600 82.756700 -84.328700 8.984550 -0.406207 -0.000000 6.654300 -1.406850 0.249297 16.377300 -0.000001 -0.000001 2.165040 -2.495690 2.802130 6.456720 -0.000001 -0.000000 -12.238700 -2.808460 7.345370 12.994200 -0.242716 4.980390 -91.740400 6.397080 -74.745500 5.348090 -0.000007 -0.000001 -61.033500 42.310800 -19.999400 24.328600 0.000019 0.000005 8.012160 19.029100 -23.350100 22.291600 -0.000001 0.000005 11.272400 5.233830 1.856310 12.994500 -0.242716 -4.980390 88.324200 12.195400 -82.115100 -5.348130 -0.000001 -0.000004 -62.361500 32.363300 -12.357600 -24.328900 0.000322 -0.000009 1.316300 3.113350 -22.948000 -22.291500 -0.000108 -0.000004 15.207900 5.389530 -2.600130 -2.192480 -6.469440 -0.000000 -177.265000 -10.641500 -0.657643 39.081100 -0.000007 -0.000012 -0.130780 0.222814 30.410900 40.985400 -0.000006 -0.000013 1.143110 3.496870 -69.713100 11.754300 -0.000000 0.000003 -0.000122 -0.001221 -16.624200 -2.192510 6.469440 -0.000001 172.728000 20.833700 -179.340000 -39.081100 -0.002282 -0.040193 -0.197767 0.344153 30.295500 -40.985400 0.000008 0.000006 2.237790 12.142800 -69.982100 -11.754300 -0.000006 -0.000006 -0.003842 -0.049782 -18.598000
0.000000 0.000000 0.000000 0.000000 0.000000 -0.000000 0.488551 90.908000 -0.805725 90.029000 -1.005040 10.448400 15.735700 0.000005 -0.000001 84.544400 82.658000 -84.402800 8.984550 -0.406207 -0.000000 6.854780 -1.392580 0.366283 16.377300 -0.000001 -0.000001 2.519280 -2.524580 2.835960 6.456720 -0.000001 -0.000000 -12.172800 -2.799410 7.342670 12.994200 -0.242716 4.980390 -91.723800 6.424230 -74.945800 5.348090 -0.000007 -0.000001 -59.945900 45.486300 -22.267700 24.328600 0.000019 0.000005 8.714860 18.814100 -25.422100 22.291600 -0.000001 0.000005 11.019800 5.251870 1.383000 12.994500 -0.242716 -4.980390 88.382900 12.104900 -82.332600 -5.348130 -0.000001 -0.000004 -62.352500 34.047400 -13.975400 -24.328900 0.000322 -0.000009 1.404780 3.125920 -24.230500 -22.291500 -0.000108 -0.000004 15.137000 5.395100 -2.778870 -2.192480 -6.469440 -0.000000 -176.839000 -10.543600 -0.315384 39.081100 -0.000007 -0.000012 -0.136781 0.232849 30.431100 40.985400 -0.000006 -0.000013 1.018290 3.684370 -69.767000 11.754300 -0.000000 0.000003 -0.000126 -0.001253 -16.625400 -2.192510 6.469440 -0.000001 172.733000 21.525400 -178.738000 -39.081100 -0.002282 -0.040193 -0.195356 0.342961 30.081500 -40.985400 0.000008 0.000006 2.494520 12.608600 -70.051600 -11.754300 -0.000006 -0.000006 -0.003786 -0.049191 -18.574000
0.000000 0.000000 0.000000 0.000000 0.000000 -0.000000 0.273737 90.911900 -0.731183 89.885900 -0.908037 10.668300 15.735700 0.000005 -0.000001 84.847100 82.583300 -84.661800 8.984550 -0.406207 -0.000000 7.010940 -1.328870 0.451759 16.377300 -0.000001 -0.000001 2.855360 -2.555760 2.881150 6.456720 -0.000001 -0.000000 -11.971800 -2.817770 7.311000 12.994200 -0.242716 4.980390 -91.701600 6.419360 -75.120100 5.348090 -0.000007 -0.000001 -58.503200 48.432000 -24.635600 24.328600 0.000019 0.000005 9.526110 18.760200 -27.554500 22.291600 -0.000001 0.000005 10.600100 5.262960 1.087030 12.994500 -0.242716 -4.980390 88.439000 11.982400 -82.522000 -5.348130 -0.000001 -0.000004 -62.242200 35.480700 -15.424600 -24.328900 0.000322 -0.000009 1.492170 3.153770 -25.351800 -22.291500 -0.000108 -0.000004 15.098400 5.401500 -2.986470 -2.192480 -6.469440 -0.000000 -176.429000 -10.624100 -0.036206 39.081100 -0.000007 -0.000012 -0.145381 0.247336 30.446700 40.985400 -0.000006 -0.000013 0.921260 3.981760 -69.803600 11.754300 -0.000000 0.000003 -0.000142 -0.001383 -16.630200 -2.192510 6.469440 -0.000001 172.764000 22.024800 -178.278000 -39.081100 -0.002282 -0.040193 -0.195733 0.345697 29.931500 -40.985400 0.000008 0.000006 2.721950 12.938900 -70.123100 -11.754300 -0.000006 -0.000006 -0.003704 -0.048323 -18.538600
0.000000 0.000000 0.000000 0.000000 0.000000 -0.000000 0.076109 90.908100 -0.651762 89.796100 -0.809888 10.830000 15.735700 0.000005 -0.000001 85.141700 82.520300 -84.930800 8.984550 -0.406207 -0.000000 7.143380 -1.263600 0.500375 16.377300 -0.000001 -0.000001 3.140020 -2.596020 2.926080 6.456720 -0.000001 -0.000000 -11.661800 -2.857920 7.296810 12.994200 -0.242716 4.980390 -91.665000 6.347120 -75.268400 5.348090 -0.000007 -0.000001 -57.078400 50.755700 -26.836700 24.328600 0.000019 0.000005 10.545300 19.115600 -29.615500 22.291600 -0.000001 0.000005 10.208700 5.284460 0.501653 12.994500 -0.242716 -4.980390 88.492200 11.843700 -82.691600 -5.348130 -0.000001 -0.000004 -62.170400 36.413400 -16.574300 -24.328900 0.000322 -0.000009 1.731290 3.498760 -26.362300 -22.291500 -0.000108 -0.000004 15.209600 5.402920 -3.032530 -2.192480 -6.469440 -0.000000 -176.131000 -10.644500 0.181637 39.081100 -0.000007 -0.000012 -0.148044 0.251645 30.468800 40.985400 -0.000006 -0.000013 0.816127 4.161080 -69.851100 11.754300 -0.000000 0.000003 -0.000127 -0.001260 -16.625600 -2.192510 6.469440 -0.000001 172.781000 22.424300 -177.928000 -39.081100 -0.002282 -0.040193 -0.194382 0.344433 29.853500 -40.985400 0.000008 0.000006 2.928970 13.205100 -70.227800 -11.754300 -0.000006 -0.000006 -0.003805 -0.049398 -18.582400
